<?xml version="1.0" encoding="UTF-8"?>
<!DOCTYPE svg PUBLIC "-//W3C//DTD SVG 1.1//EN" "http://www.w3.org/Graphics/SVG/1.1/DTD/svg11.dtd">
<svg xmlns="http://www.w3.org/2000/svg" style="background: transparent; background-color: transparent; color-scheme: light;" xmlns:xlink="http://www.w3.org/1999/xlink" version="1.1" width="2355px" height="1105px" viewBox="-0.5 -0.5 2355 1105"><defs><style xmlns="http://www.w3.org/1999/xhtml" id="MJX-SVG-styles">&#xa;mjx-container[jax="SVG"] {&#xa;  direction: ltr;&#xa;}&#xa;&#xa;mjx-container[jax="SVG"] &gt; svg {&#xa;  overflow: visible;&#xa;  min-height: 1px;&#xa;  min-width: 1px;&#xa;}&#xa;&#xa;mjx-container[jax="SVG"] &gt; svg a {&#xa;  fill: blue;&#xa;  stroke: blue;&#xa;}&#xa;&#xa;mjx-container[jax="SVG"][display="true"] {&#xa;  display: block;&#xa;  text-align: center;&#xa;  margin: 1em 0;&#xa;}&#xa;&#xa;mjx-container[jax="SVG"][display="true"][width="full"] {&#xa;  display: flex;&#xa;}&#xa;&#xa;mjx-container[jax="SVG"][justify="left"] {&#xa;  text-align: left;&#xa;}&#xa;&#xa;mjx-container[jax="SVG"][justify="right"] {&#xa;  text-align: right;&#xa;}&#xa;&#xa;g[data-mml-node="merror"] &gt; g {&#xa;  fill: red;&#xa;  stroke: red;&#xa;}&#xa;&#xa;g[data-mml-node="merror"] &gt; rect[data-background] {&#xa;  fill: yellow;&#xa;  stroke: none;&#xa;}&#xa;&#xa;g[data-mml-node="mtable"] &gt; line[data-line], svg[data-table] &gt; g &gt; line[data-line] {&#xa;  stroke-width: 70px;&#xa;  fill: none;&#xa;}&#xa;&#xa;g[data-mml-node="mtable"] &gt; rect[data-frame], svg[data-table] &gt; g &gt; rect[data-frame] {&#xa;  stroke-width: 70px;&#xa;  fill: none;&#xa;}&#xa;&#xa;g[data-mml-node="mtable"] &gt; .mjx-dashed, svg[data-table] &gt; g &gt; .mjx-dashed {&#xa;  stroke-dasharray: 140;&#xa;}&#xa;&#xa;g[data-mml-node="mtable"] &gt; .mjx-dotted, svg[data-table] &gt; g &gt; .mjx-dotted {&#xa;  stroke-linecap: round;&#xa;  stroke-dasharray: 0,140;&#xa;}&#xa;&#xa;g[data-mml-node="mtable"] &gt; g &gt; svg {&#xa;  overflow: visible;&#xa;}&#xa;&#xa;[jax="SVG"] mjx-tool {&#xa;  display: inline-block;&#xa;  position: relative;&#xa;  width: 0;&#xa;  height: 0;&#xa;}&#xa;&#xa;[jax="SVG"] mjx-tool &gt; mjx-tip {&#xa;  position: absolute;&#xa;  top: 0;&#xa;  left: 0;&#xa;}&#xa;&#xa;mjx-tool &gt; mjx-tip {&#xa;  display: inline-block;&#xa;  padding: .2em;&#xa;  border: 1px solid #888;&#xa;  font-size: 70%;&#xa;  background-color: #F8F8F8;&#xa;  color: black;&#xa;  box-shadow: 2px 2px 5px #AAAAAA;&#xa;}&#xa;&#xa;g[data-mml-node="maction"][data-toggle] {&#xa;  cursor: pointer;&#xa;}&#xa;&#xa;mjx-status {&#xa;  display: block;&#xa;  position: fixed;&#xa;  left: 1em;&#xa;  bottom: 1em;&#xa;  min-width: 25%;&#xa;  padding: .2em .4em;&#xa;  border: 1px solid #888;&#xa;  font-size: 90%;&#xa;  background-color: #F8F8F8;&#xa;  color: black;&#xa;}&#xa;&#xa;foreignObject[data-mjx-xml] {&#xa;  font-family: initial;&#xa;  line-height: normal;&#xa;  overflow: visible;&#xa;}&#xa;&#xa;mjx-container[jax="SVG"] path[data-c], mjx-container[jax="SVG"] use[data-c] {&#xa;  stroke-width: 3;&#xa;}&#xa;</style></defs><g><g data-cell-id="0"><g data-cell-id="1"><g data-cell-id="lBcME9HioT4ysflhcnZz-1"><g><rect x="800" y="600" width="400" height="500" rx="60" ry="60" fill="#ffffff" stroke="#000000" stroke-width="5" stroke-dasharray="15 15" pointer-events="all" style="fill: rgb(255, 255, 255); stroke: rgb(0, 0, 0);"/></g></g><g data-cell-id="lBcME9HioT4ysflhcnZz-2"><g><rect x="1950" y="101.9" width="400" height="200" fill="#ffffff" stroke="#000000" stroke-width="5" pointer-events="all" style="fill: rgb(255, 255, 255); stroke: rgb(0, 0, 0);"/></g><g><g transform="translate(-0.5 -0.5)scale(5)"><switch><foreignObject style="overflow: visible; text-align: left;" pointer-events="none" width="100%" height="100%" requiredFeatures="http://www.w3.org/TR/SVG11/feature#Extensibility"><div xmlns="http://www.w3.org/1999/xhtml" style="display: flex; align-items: unsafe center; justify-content: unsafe center; width: 78px; height: 1px; padding-top: 40px; margin-left: 391px;"><div style="box-sizing: border-box; font-size: 0; text-align: center; color: #000000; "><div style="display: inline-block; font-size: 12px; font-family: &quot;Helvetica&quot;; color: #000000; line-height: 1.2; pointer-events: all; white-space: normal; word-wrap: normal; "><mjx-container class="MathJax" jax="SVG" display="true"><svg xmlns="http://www.w3.org/2000/svg" width="10.775ex" height="2.366ex" role="img" focusable="false" viewBox="0 -896 4762.7 1046" xmlns:xlink="http://www.w3.org/1999/xlink" style="vertical-align: -0.339ex;"><defs><path id="MJX-151-TEX-B-1D42E" d="M40 442L134 446Q228 450 229 450H235V273V165Q235 90 238 74T254 52Q268 46 304 46H319Q352 46 380 67T419 121L420 123Q424 135 425 199Q425 201 425 207Q425 233 425 249V316Q425 354 423 363T410 376Q396 380 369 380H356V442L554 450V267Q554 84 556 79Q561 62 610 62H623V31Q623 0 622 0Q603 0 527 -3T432 -6Q431 -6 431 25V56L420 45Q373 6 332 -1Q313 -6 281 -6Q208 -6 165 14T109 87L107 98L106 230Q106 358 104 366Q96 380 50 380H37V442H40Z"/><path id="MJX-151-TEX-N-31" d="M213 578L200 573Q186 568 160 563T102 556H83V602H102Q149 604 189 617T245 641T273 663Q275 666 285 666Q294 666 302 660V361L303 61Q310 54 315 52T339 48T401 46H427V0H416Q395 3 257 3Q121 3 100 0H88V46H114Q136 46 152 46T177 47T193 50T201 52T207 57T213 61V578Z"/><path id="MJX-151-TEX-N-3A" d="M78 370Q78 394 95 412T138 430Q162 430 180 414T199 371Q199 346 182 328T139 310T96 327T78 370ZM78 60Q78 84 95 102T138 120Q162 120 180 104T199 61Q199 36 182 18T139 0T96 17T78 60Z"/><path id="MJX-151-TEX-I-1D43F" d="M228 637Q194 637 192 641Q191 643 191 649Q191 673 202 682Q204 683 217 683Q271 680 344 680Q485 680 506 683H518Q524 677 524 674T522 656Q517 641 513 637H475Q406 636 394 628Q387 624 380 600T313 336Q297 271 279 198T252 88L243 52Q243 48 252 48T311 46H328Q360 46 379 47T428 54T478 72T522 106T564 161Q580 191 594 228T611 270Q616 273 628 273H641Q647 264 647 262T627 203T583 83T557 9Q555 4 553 3T537 0T494 -1Q483 -1 418 -1T294 0H116Q32 0 32 10Q32 17 34 24Q39 43 44 45Q48 46 59 46H65Q92 46 125 49Q139 52 144 61Q147 65 216 339T285 628Q285 635 228 637Z"/><path id="MJX-151-TEX-N-2208" d="M84 250Q84 372 166 450T360 539Q361 539 377 539T419 540T469 540H568Q583 532 583 520Q583 511 570 501L466 500Q355 499 329 494Q280 482 242 458T183 409T147 354T129 306T124 272V270H568Q583 262 583 250T568 230H124V228Q124 207 134 177T167 112T231 48T328 7Q355 1 466 0H570Q583 -10 583 -20Q583 -32 568 -40H471Q464 -40 446 -40T417 -41Q262 -41 172 45Q84 127 84 250Z"/><path id="MJX-151-TEX-D-211D" d="M17 665Q17 672 28 683H221Q415 681 439 677Q461 673 481 667T516 654T544 639T566 623T584 607T597 592T607 578T614 565T618 554L621 548Q626 530 626 497Q626 447 613 419Q578 348 473 326L455 321Q462 310 473 292T517 226T578 141T637 72T686 35Q705 30 705 16Q705 7 693 -1H510Q503 6 404 159L306 310H268V183Q270 67 271 59Q274 42 291 38Q295 37 319 35Q344 35 353 28Q362 17 353 3L346 -1H28Q16 5 16 16Q16 35 55 35Q96 38 101 52Q106 60 106 341T101 632Q95 645 55 648Q17 648 17 665ZM241 35Q238 42 237 45T235 78T233 163T233 337V621L237 635L244 648H133Q136 641 137 638T139 603T141 517T141 341Q141 131 140 89T134 37Q133 36 133 35H241ZM457 496Q457 540 449 570T425 615T400 634T377 643Q374 643 339 648Q300 648 281 635Q271 628 270 610T268 481V346H284Q327 346 375 352Q421 364 439 392T457 496ZM492 537T492 496T488 427T478 389T469 371T464 361Q464 360 465 360Q469 360 497 370Q593 400 593 495Q593 592 477 630L457 637L461 626Q474 611 488 561Q492 537 492 496ZM464 243Q411 317 410 317Q404 317 401 315Q384 315 370 312H346L526 35H619L606 50Q553 109 464 243Z"/><path id="MJX-151-TEX-N-32" d="M109 429Q82 429 66 447T50 491Q50 562 103 614T235 666Q326 666 387 610T449 465Q449 422 429 383T381 315T301 241Q265 210 201 149L142 93L218 92Q375 92 385 97Q392 99 409 186V189H449V186Q448 183 436 95T421 3V0H50V19V31Q50 38 56 46T86 81Q115 113 136 137Q145 147 170 174T204 211T233 244T261 278T284 308T305 340T320 369T333 401T340 431T343 464Q343 527 309 573T212 619Q179 619 154 602T119 569T109 550Q109 549 114 549Q132 549 151 535T170 489Q170 464 154 447T109 429Z"/><path id="MJX-151-TEX-I-1D441" d="M234 637Q231 637 226 637Q201 637 196 638T191 649Q191 676 202 682Q204 683 299 683Q376 683 387 683T401 677Q612 181 616 168L670 381Q723 592 723 606Q723 633 659 637Q635 637 635 648Q635 650 637 660Q641 676 643 679T653 683Q656 683 684 682T767 680Q817 680 843 681T873 682Q888 682 888 672Q888 650 880 642Q878 637 858 637Q787 633 769 597L620 7Q618 0 599 0Q585 0 582 2Q579 5 453 305L326 604L261 344Q196 88 196 79Q201 46 268 46H278Q284 41 284 38T282 19Q278 6 272 0H259Q228 2 151 2Q123 2 100 2T63 2T46 1Q31 1 31 10Q31 14 34 26T39 40Q41 46 62 46Q130 49 150 85Q154 91 221 362L289 634Q287 635 234 637Z"/></defs><g stroke="currentColor" fill="currentColor" stroke-width="0" transform="scale(1,-1)"><g data-mml-node="math"><g data-mml-node="msub"><g data-mml-node="TeXAtom" data-mjx-texclass="ORD"><g data-mml-node="mi"><use data-c="1D42E" xlink:href="#MJX-151-TEX-B-1D42E"/></g></g><g data-mml-node="TeXAtom" transform="translate(672,-150) scale(0.707)" data-mjx-texclass="ORD"><g data-mml-node="mn"><use data-c="31" xlink:href="#MJX-151-TEX-N-31"/></g><g data-mml-node="mo" transform="translate(500,0)"><use data-c="3A" xlink:href="#MJX-151-TEX-N-3A"/></g><g data-mml-node="mi" transform="translate(778,0)"><use data-c="1D43F" xlink:href="#MJX-151-TEX-I-1D43F"/></g></g></g><g data-mml-node="mo" transform="translate(2031.4,0)"><use data-c="2208" xlink:href="#MJX-151-TEX-N-2208"/></g><g data-mml-node="msup" transform="translate(2976.2,0)"><g data-mml-node="TeXAtom" data-mjx-texclass="ORD"><g data-mml-node="mi"><use data-c="211D" xlink:href="#MJX-151-TEX-D-211D"/></g></g><g data-mml-node="TeXAtom" transform="translate(755,413) scale(0.707)" data-mjx-texclass="ORD"><g data-mml-node="mn"><use data-c="32" xlink:href="#MJX-151-TEX-N-32"/></g><g data-mml-node="mi" transform="translate(500,0)"><use data-c="1D441" xlink:href="#MJX-151-TEX-I-1D441"/></g></g></g></g></g></svg></mjx-container></div></div></div></foreignObject><text x="430" y="44" fill="light-dark(#000000, #ffffff)" font-family="&quot;Helvetica&quot;" font-size="12px" text-anchor="middle">$$\mathbf{u}_...</text></switch></g></g></g><g data-cell-id="lBcME9HioT4ysflhcnZz-3"><g><path d="M 1415 937.5 L 1705 937.5 L 1705 430.59" fill="none" stroke="#000000" stroke-width="5" stroke-miterlimit="10" pointer-events="stroke" style="stroke: rgb(0, 0, 0);"/><path d="M 1705 404.34 L 1722.5 439.34 L 1705 430.59 L 1687.5 439.34 Z" fill="#000000" stroke="#000000" stroke-width="5" stroke-miterlimit="10" pointer-events="all" style="fill: rgb(0, 0, 0); stroke: rgb(0, 0, 0);"/></g></g><g data-cell-id="lBcME9HioT4ysflhcnZz-4"><g><ellipse cx="1352.5" cy="937.5" rx="62.5" ry="62.5" fill="#ffffff" stroke="#000000" stroke-width="5" pointer-events="all" style="fill: rgb(255, 255, 255); stroke: rgb(0, 0, 0);"/><path d="M 1308 893 L 1397 982 M 1397 893 L 1308 982" fill="none" stroke="#000000" stroke-width="5" stroke-miterlimit="10" pointer-events="all" style="stroke: rgb(0, 0, 0);"/></g></g><g data-cell-id="lBcME9HioT4ysflhcnZz-5"><g><path d="M 400 200 L 468.16 200.02" fill="none" stroke="#000000" stroke-width="5" stroke-miterlimit="10" pointer-events="stroke" style="stroke: rgb(0, 0, 0);"/><path d="M 494.41 200.02 L 459.41 217.51 L 468.16 200.02 L 459.41 182.51 Z" fill="#000000" stroke="#000000" stroke-width="5" stroke-miterlimit="10" pointer-events="all" style="fill: rgb(0, 0, 0); stroke: rgb(0, 0, 0);"/></g></g><g data-cell-id="lBcME9HioT4ysflhcnZz-6"><g><rect x="0" y="100" width="400" height="200" fill="#ffffff" stroke="#000000" stroke-width="5" pointer-events="all" style="fill: rgb(255, 255, 255); stroke: rgb(0, 0, 0);"/></g><g><g transform="translate(-0.5 -0.5)scale(5)"><switch><foreignObject style="overflow: visible; text-align: left;" pointer-events="none" width="100%" height="100%" requiredFeatures="http://www.w3.org/TR/SVG11/feature#Extensibility"><div xmlns="http://www.w3.org/1999/xhtml" style="display: flex; align-items: unsafe center; justify-content: unsafe center; width: 78px; height: 1px; padding-top: 40px; margin-left: 1px;"><div style="box-sizing: border-box; font-size: 0; text-align: center; color: #000000; "><div style="display: inline-block; font-size: 12px; font-family: &quot;Helvetica&quot;; color: #000000; line-height: 1.2; pointer-events: all; white-space: normal; word-wrap: normal; "><span style="color: rgb(63, 63, 63); text-wrap-mode: nowrap;"><mjx-container class="MathJax" jax="SVG" display="true"><svg xmlns="http://www.w3.org/2000/svg" width="9.241ex" height="2.402ex" role="img" focusable="false" viewBox="0 -896 4084.6 1061.5" xmlns:xlink="http://www.w3.org/1999/xlink" style="vertical-align: -0.375ex;"><defs><path id="MJX-152-TEX-B-1D42E" d="M40 442L134 446Q228 450 229 450H235V273V165Q235 90 238 74T254 52Q268 46 304 46H319Q352 46 380 67T419 121L420 123Q424 135 425 199Q425 201 425 207Q425 233 425 249V316Q425 354 423 363T410 376Q396 380 369 380H356V442L554 450V267Q554 84 556 79Q561 62 610 62H623V31Q623 0 622 0Q603 0 527 -3T432 -6Q431 -6 431 25V56L420 45Q373 6 332 -1Q313 -6 281 -6Q208 -6 165 14T109 87L107 98L106 230Q106 358 104 366Q96 380 50 380H37V442H40Z"/><path id="MJX-152-TEX-N-30" d="M96 585Q152 666 249 666Q297 666 345 640T423 548Q460 465 460 320Q460 165 417 83Q397 41 362 16T301 -15T250 -22Q224 -22 198 -16T137 16T82 83Q39 165 39 320Q39 494 96 585ZM321 597Q291 629 250 629Q208 629 178 597Q153 571 145 525T137 333Q137 175 145 125T181 46Q209 16 250 16Q290 16 318 46Q347 76 354 130T362 333Q362 478 354 524T321 597Z"/><path id="MJX-152-TEX-N-2208" d="M84 250Q84 372 166 450T360 539Q361 539 377 539T419 540T469 540H568Q583 532 583 520Q583 511 570 501L466 500Q355 499 329 494Q280 482 242 458T183 409T147 354T129 306T124 272V270H568Q583 262 583 250T568 230H124V228Q124 207 134 177T167 112T231 48T328 7Q355 1 466 0H570Q583 -10 583 -20Q583 -32 568 -40H471Q464 -40 446 -40T417 -41Q262 -41 172 45Q84 127 84 250Z"/><path id="MJX-152-TEX-D-211D" d="M17 665Q17 672 28 683H221Q415 681 439 677Q461 673 481 667T516 654T544 639T566 623T584 607T597 592T607 578T614 565T618 554L621 548Q626 530 626 497Q626 447 613 419Q578 348 473 326L455 321Q462 310 473 292T517 226T578 141T637 72T686 35Q705 30 705 16Q705 7 693 -1H510Q503 6 404 159L306 310H268V183Q270 67 271 59Q274 42 291 38Q295 37 319 35Q344 35 353 28Q362 17 353 3L346 -1H28Q16 5 16 16Q16 35 55 35Q96 38 101 52Q106 60 106 341T101 632Q95 645 55 648Q17 648 17 665ZM241 35Q238 42 237 45T235 78T233 163T233 337V621L237 635L244 648H133Q136 641 137 638T139 603T141 517T141 341Q141 131 140 89T134 37Q133 36 133 35H241ZM457 496Q457 540 449 570T425 615T400 634T377 643Q374 643 339 648Q300 648 281 635Q271 628 270 610T268 481V346H284Q327 346 375 352Q421 364 439 392T457 496ZM492 537T492 496T488 427T478 389T469 371T464 361Q464 360 465 360Q469 360 497 370Q593 400 593 495Q593 592 477 630L457 637L461 626Q474 611 488 561Q492 537 492 496ZM464 243Q411 317 410 317Q404 317 401 315Q384 315 370 312H346L526 35H619L606 50Q553 109 464 243Z"/><path id="MJX-152-TEX-N-32" d="M109 429Q82 429 66 447T50 491Q50 562 103 614T235 666Q326 666 387 610T449 465Q449 422 429 383T381 315T301 241Q265 210 201 149L142 93L218 92Q375 92 385 97Q392 99 409 186V189H449V186Q448 183 436 95T421 3V0H50V19V31Q50 38 56 46T86 81Q115 113 136 137Q145 147 170 174T204 211T233 244T261 278T284 308T305 340T320 369T333 401T340 431T343 464Q343 527 309 573T212 619Q179 619 154 602T119 569T109 550Q109 549 114 549Q132 549 151 535T170 489Q170 464 154 447T109 429Z"/><path id="MJX-152-TEX-I-1D441" d="M234 637Q231 637 226 637Q201 637 196 638T191 649Q191 676 202 682Q204 683 299 683Q376 683 387 683T401 677Q612 181 616 168L670 381Q723 592 723 606Q723 633 659 637Q635 637 635 648Q635 650 637 660Q641 676 643 679T653 683Q656 683 684 682T767 680Q817 680 843 681T873 682Q888 682 888 672Q888 650 880 642Q878 637 858 637Q787 633 769 597L620 7Q618 0 599 0Q585 0 582 2Q579 5 453 305L326 604L261 344Q196 88 196 79Q201 46 268 46H278Q284 41 284 38T282 19Q278 6 272 0H259Q228 2 151 2Q123 2 100 2T63 2T46 1Q31 1 31 10Q31 14 34 26T39 40Q41 46 62 46Q130 49 150 85Q154 91 221 362L289 634Q287 635 234 637Z"/></defs><g stroke="currentColor" fill="currentColor" stroke-width="0" transform="scale(1,-1)"><g data-mml-node="math"><g data-mml-node="msub"><g data-mml-node="TeXAtom" data-mjx-texclass="ORD"><g data-mml-node="mi"><use data-c="1D42E" xlink:href="#MJX-152-TEX-B-1D42E"/></g></g><g data-mml-node="mn" transform="translate(672,-150) scale(0.707)"><use data-c="30" xlink:href="#MJX-152-TEX-N-30"/></g></g><g data-mml-node="mo" transform="translate(1353.3,0)"><use data-c="2208" xlink:href="#MJX-152-TEX-N-2208"/></g><g data-mml-node="msup" transform="translate(2298.1,0)"><g data-mml-node="TeXAtom" data-mjx-texclass="ORD"><g data-mml-node="mi"><use data-c="211D" xlink:href="#MJX-152-TEX-D-211D"/></g></g><g data-mml-node="TeXAtom" transform="translate(755,413) scale(0.707)" data-mjx-texclass="ORD"><g data-mml-node="mn"><use data-c="32" xlink:href="#MJX-152-TEX-N-32"/></g><g data-mml-node="mi" transform="translate(500,0)"><use data-c="1D441" xlink:href="#MJX-152-TEX-I-1D441"/></g></g></g></g></g></svg></mjx-container></span></div></div></div></foreignObject><text x="40" y="44" fill="light-dark(#000000, #ffffff)" font-family="&quot;Helvetica&quot;" font-size="12px" text-anchor="middle">$$\mathbf{u}_...</text></switch></g></g></g><g data-cell-id="lBcME9HioT4ysflhcnZz-7"><g><path d="M 800 200.02 L 875.81 200.04" fill="none" stroke="#000000" stroke-width="5" stroke-miterlimit="10" pointer-events="stroke" style="stroke: rgb(0, 0, 0);"/><path d="M 902.06 200.05 L 867.06 217.54 L 875.81 200.04 L 867.06 182.54 Z" fill="#000000" stroke="#000000" stroke-width="5" stroke-miterlimit="10" pointer-events="all" style="fill: rgb(0, 0, 0); stroke: rgb(0, 0, 0);"/></g></g><g data-cell-id="lBcME9HioT4ysflhcnZz-8"><g><rect x="500" y="3.15" width="300" height="393.75" rx="45" ry="45" fill="#ffffff" stroke="#000000" stroke-width="5" pointer-events="all" style="fill: rgb(255, 255, 255); stroke: rgb(0, 0, 0);"/></g><g><g transform="translate(-0.5 -0.5)scale(5)"><switch><foreignObject style="overflow: visible; text-align: left;" pointer-events="none" width="100%" height="100%" requiredFeatures="http://www.w3.org/TR/SVG11/feature#Extensibility"><div xmlns="http://www.w3.org/1999/xhtml" style="display: flex; align-items: unsafe center; justify-content: unsafe center; width: 58px; height: 1px; padding-top: 40px; margin-left: 101px;"><div style="box-sizing: border-box; font-size: 0; text-align: center; color: #000000; "><div style="display: inline-block; font-size: 12px; font-family: &quot;Helvetica&quot;; color: #000000; line-height: 1.2; pointer-events: all; white-space: normal; word-wrap: normal; "><font><span style="color: rgb(0, 0, 0); text-wrap-mode: nowrap;">Encoder</span><br style="color: rgb(63, 63, 63); scrollbar-color: rgb(226, 226, 226) rgb(251, 251, 251); padding: 0px; margin: 0px; text-wrap-mode: nowrap;" /><span style="color: rgb(0, 0, 0); text-wrap-mode: nowrap;"><mjx-container class="MathJax" jax="SVG" display="true"><svg xmlns="http://www.w3.org/2000/svg" width="1.48ex" height="1.493ex" role="img" focusable="false" viewBox="0 -442 654 660" xmlns:xlink="http://www.w3.org/1999/xlink" style="vertical-align: -0.493ex;"><defs><path id="MJX-153-TEX-I-1D711" d="M92 210Q92 176 106 149T142 108T185 85T220 72L235 70L237 71L250 112Q268 170 283 211T322 299T370 375T429 423T502 442Q547 442 582 410T618 302Q618 224 575 152T457 35T299 -10Q273 -10 273 -12L266 -48Q260 -83 252 -125T241 -179Q236 -203 215 -212Q204 -218 190 -218Q159 -215 159 -185Q159 -175 214 -2L209 0Q204 2 195 5T173 14T147 28T120 46T94 71T71 103T56 142T50 190Q50 238 76 311T149 431H162Q183 431 183 423Q183 417 175 409Q134 361 114 300T92 210ZM574 278Q574 320 550 344T486 369Q437 369 394 329T323 218Q309 184 295 109L286 64Q304 62 306 62Q423 62 498 131T574 278Z"/></defs><g stroke="currentColor" fill="currentColor" stroke-width="0" transform="scale(1,-1)"><g data-mml-node="math"><g data-mml-node="mi"><use data-c="1D711" xlink:href="#MJX-153-TEX-I-1D711"/></g></g></g></svg></mjx-container></span></font></div></div></div></foreignObject><text x="130" y="44" fill="light-dark(#000000, #ffffff)" font-family="&quot;Helvetica&quot;" font-size="12px" text-anchor="middle">Encoder...</text></switch></g></g></g><g data-cell-id="lBcME9HioT4ysflhcnZz-9"><g><path d="M 1177.65 400.05 L 1177.5 500 L 1000 500 L 1000 600" fill="none" stroke="#000000" stroke-width="5" stroke-miterlimit="10" pointer-events="stroke" style="stroke: rgb(0, 0, 0);"/></g></g><g data-cell-id="lBcME9HioT4ysflhcnZz-10"><g><path d="M 1177.65 400.05 L 1177.5 500 L 1350 500 L 1350 600" fill="none" stroke="#000000" stroke-width="5" stroke-miterlimit="10" pointer-events="stroke" style="stroke: rgb(0, 0, 0);"/></g></g><g data-cell-id="lBcME9HioT4ysflhcnZz-11"><g><rect x="907.65" y="0.05" width="540" height="400" rx="60" ry="60" fill="#ffffff" stroke="#000000" stroke-width="5" pointer-events="all" style="fill: rgb(255, 255, 255); stroke: rgb(0, 0, 0);"/></g><g><g transform="translate(-0.5 -0.5)scale(5)"><switch><foreignObject style="overflow: visible; text-align: left;" pointer-events="none" width="100%" height="100%" requiredFeatures="http://www.w3.org/TR/SVG11/feature#Extensibility"><div xmlns="http://www.w3.org/1999/xhtml" style="display: flex; align-items: unsafe center; justify-content: unsafe center; width: 106px; height: 1px; padding-top: 40px; margin-left: 183px;"><div style="box-sizing: border-box; font-size: 0; text-align: center; color: #000000; "><div style="display: inline-block; font-size: 12px; font-family: &quot;Helvetica&quot;; color: #000000; line-height: 1.2; pointer-events: all; white-space: normal; word-wrap: normal; "><font><span style="color: rgb(0, 0, 0); text-wrap-mode: nowrap;">Linear Dynamics</span><br style="color: rgb(63, 63, 63); scrollbar-color: rgb(226, 226, 226) rgb(251, 251, 251); padding: 0px; margin: 0px; text-wrap-mode: nowrap;" /><span style="color: rgb(0, 0, 0); text-wrap-mode: nowrap;"><mjx-container class="MathJax" jax="SVG" display="true"><svg xmlns="http://www.w3.org/2000/svg" width="7.642ex" height="2.118ex" role="img" focusable="false" viewBox="0 -896 3377.7 936" xmlns:xlink="http://www.w3.org/1999/xlink" style="vertical-align: -0.09ex;"><defs><path id="MJX-154-TEX-B-1D431" d="M227 0Q212 3 121 3Q40 3 28 0H21V62H117L245 213L109 382H26V444H34Q49 441 143 441Q247 441 265 444H274V382H246L281 339Q315 297 316 297Q320 297 354 341L389 382H352V444H360Q375 441 466 441Q547 441 559 444H566V382H471L355 246L504 63L545 62H586V0H578Q563 3 469 3Q365 3 347 0H338V62H366Q366 63 326 112T285 163L198 63L217 62H235V0H227Z"/><path id="MJX-154-TEX-N-2208" d="M84 250Q84 372 166 450T360 539Q361 539 377 539T419 540T469 540H568Q583 532 583 520Q583 511 570 501L466 500Q355 499 329 494Q280 482 242 458T183 409T147 354T129 306T124 272V270H568Q583 262 583 250T568 230H124V228Q124 207 134 177T167 112T231 48T328 7Q355 1 466 0H570Q583 -10 583 -20Q583 -32 568 -40H471Q464 -40 446 -40T417 -41Q262 -41 172 45Q84 127 84 250Z"/><path id="MJX-154-TEX-D-2102" d="M684 131Q684 125 672 109T633 71T573 29T489 -5T386 -19Q330 -19 276 -3T174 46T91 134T44 261Q39 283 39 341T44 421Q66 538 143 611T341 699Q344 699 364 700T395 701Q449 698 503 677T585 655Q603 655 611 662T620 678T625 694T639 702Q650 702 657 690V481L653 474Q640 467 628 472Q624 476 618 496T595 541Q562 587 507 625T390 663H381Q337 663 299 625Q212 547 212 336Q212 249 233 179Q274 30 405 30Q533 30 641 130Q658 147 666 147Q671 147 677 143T684 131ZM250 625Q264 643 261 643Q238 635 214 620T161 579T110 510T79 414Q74 384 74 341T79 268Q89 213 113 169T164 101T217 61T260 39L277 34Q270 41 264 48Q199 111 181 254Q178 281 178 344T181 434Q200 559 250 625ZM621 565V625Q617 623 613 623Q603 619 590 619H575L588 605Q608 583 610 579L621 565Z"/><path id="MJX-154-TEX-I-1D440" d="M289 629Q289 635 232 637Q208 637 201 638T194 648Q194 649 196 659Q197 662 198 666T199 671T201 676T203 679T207 681T212 683T220 683T232 684Q238 684 262 684T307 683Q386 683 398 683T414 678Q415 674 451 396L487 117L510 154Q534 190 574 254T662 394Q837 673 839 675Q840 676 842 678T846 681L852 683H948Q965 683 988 683T1017 684Q1051 684 1051 673Q1051 668 1048 656T1045 643Q1041 637 1008 637Q968 636 957 634T939 623Q936 618 867 340T797 59Q797 55 798 54T805 50T822 48T855 46H886Q892 37 892 35Q892 19 885 5Q880 0 869 0Q864 0 828 1T736 2Q675 2 644 2T609 1Q592 1 592 11Q592 13 594 25Q598 41 602 43T625 46Q652 46 685 49Q699 52 704 61Q706 65 742 207T813 490T848 631L654 322Q458 10 453 5Q451 4 449 3Q444 0 433 0Q418 0 415 7Q413 11 374 317L335 624L267 354Q200 88 200 79Q206 46 272 46H282Q288 41 289 37T286 19Q282 3 278 1Q274 0 267 0Q265 0 255 0T221 1T157 2Q127 2 95 1T58 0Q43 0 39 2T35 11Q35 13 38 25T43 40Q45 46 65 46Q135 46 154 86Q158 92 223 354T289 629Z"/></defs><g stroke="currentColor" fill="currentColor" stroke-width="0" transform="scale(1,-1)"><g data-mml-node="math"><g data-mml-node="TeXAtom" data-mjx-texclass="ORD"><g data-mml-node="mi"><use data-c="1D431" xlink:href="#MJX-154-TEX-B-1D431"/></g></g><g data-mml-node="mo" transform="translate(884.8,0)"><use data-c="2208" xlink:href="#MJX-154-TEX-N-2208"/></g><g data-mml-node="msup" transform="translate(1829.6,0)"><g data-mml-node="TeXAtom" data-mjx-texclass="ORD"><g data-mml-node="mi"><use data-c="2102" xlink:href="#MJX-154-TEX-D-2102"/></g></g><g data-mml-node="TeXAtom" transform="translate(755,413) scale(0.707)" data-mjx-texclass="ORD"><g data-mml-node="mi"><use data-c="1D440" xlink:href="#MJX-154-TEX-I-1D440"/></g></g></g></g></g></svg></mjx-container></span></font></div></div></div></foreignObject><text x="236" y="44" fill="light-dark(#000000, #ffffff)" font-family="&quot;Helvetica&quot;" font-size="12px" text-anchor="middle">Linear Dynamics...</text></switch></g></g></g><g data-cell-id="lBcME9HioT4ysflhcnZz-12"><g><path d="M 1855 201.88 L 1918.16 201.88" fill="none" stroke="#000000" stroke-width="5" stroke-miterlimit="10" pointer-events="stroke" style="stroke: rgb(0, 0, 0);"/><path d="M 1944.41 201.88 L 1909.41 219.38 L 1918.16 201.88 L 1909.41 184.38 Z" fill="#000000" stroke="#000000" stroke-width="5" stroke-miterlimit="10" pointer-events="all" style="fill: rgb(0, 0, 0); stroke: rgb(0, 0, 0);"/></g></g><g data-cell-id="lBcME9HioT4ysflhcnZz-13"><g><rect x="1555" y="5" width="300" height="393.75" rx="45" ry="45" fill="#ffffff" stroke="#000000" stroke-width="5" pointer-events="all" style="fill: rgb(255, 255, 255); stroke: rgb(0, 0, 0);"/></g><g><g transform="translate(-0.5 -0.5)scale(5)"><switch><foreignObject style="overflow: visible; text-align: left;" pointer-events="none" width="100%" height="100%" requiredFeatures="http://www.w3.org/TR/SVG11/feature#Extensibility"><div xmlns="http://www.w3.org/1999/xhtml" style="display: flex; align-items: unsafe center; justify-content: unsafe center; width: 58px; height: 1px; padding-top: 40px; margin-left: 312px;"><div style="box-sizing: border-box; font-size: 0; text-align: center; color: #000000; "><div style="display: inline-block; font-size: 12px; font-family: &quot;Helvetica&quot;; color: #000000; line-height: 1.2; pointer-events: all; white-space: normal; word-wrap: normal; "><font><span style="color: rgb(0, 0, 0); text-wrap-mode: nowrap;">Decoder</span><br style="color: rgb(63, 63, 63); scrollbar-color: rgb(226, 226, 226) rgb(251, 251, 251); padding: 0px; margin: 0px; text-wrap-mode: nowrap;" /><span style="color: rgb(0, 0, 0); text-wrap-mode: nowrap;"><mjx-container class="MathJax" jax="SVG" display="true"><svg xmlns="http://www.w3.org/2000/svg" width="1.473ex" height="2.034ex" role="img" focusable="false" viewBox="0 -694 651 899" xmlns:xlink="http://www.w3.org/1999/xlink" style="vertical-align: -0.464ex;"><defs><path id="MJX-155-TEX-I-1D713" d="M161 441Q202 441 226 417T250 358Q250 338 218 252T187 127Q190 85 214 61Q235 43 257 37Q275 29 288 29H289L371 360Q455 691 456 692Q459 694 472 694Q492 694 492 687Q492 678 411 356Q329 28 329 27T335 26Q421 26 498 114T576 278Q576 302 568 319T550 343T532 361T524 384Q524 405 541 424T583 443Q602 443 618 425T634 366Q634 337 623 288T605 220Q573 125 492 57T329 -11H319L296 -104Q272 -198 272 -199Q270 -205 252 -205H239Q233 -199 233 -197Q233 -192 256 -102T279 -9Q272 -8 265 -8Q106 14 106 139Q106 174 139 264T173 379Q173 380 173 381Q173 390 173 393T169 400T158 404H154Q131 404 112 385T82 344T65 302T57 280Q55 278 41 278H27Q21 284 21 287Q21 299 34 333T82 404T161 441Z"/></defs><g stroke="currentColor" fill="currentColor" stroke-width="0" transform="scale(1,-1)"><g data-mml-node="math"><g data-mml-node="mi"><use data-c="1D713" xlink:href="#MJX-155-TEX-I-1D713"/></g></g></g></svg></mjx-container></span></font></div></div></div></foreignObject><text x="341" y="44" fill="light-dark(#000000, #ffffff)" font-family="&quot;Helvetica&quot;" font-size="12px" text-anchor="middle">Decoder...</text></switch></g></g></g><g data-cell-id="lBcME9HioT4ysflhcnZz-14"><g><path d="M 1000 750 L 1000 830.66" fill="none" stroke="#000000" stroke-width="5" stroke-miterlimit="10" pointer-events="stroke" style="stroke: rgb(0, 0, 0);"/><path d="M 1000 856.91 L 982.5 821.91 L 1000 830.66 L 1017.5 821.91 Z" fill="#000000" stroke="#000000" stroke-width="5" stroke-miterlimit="10" pointer-events="all" style="fill: rgb(0, 0, 0); stroke: rgb(0, 0, 0);"/></g></g><g data-cell-id="lBcME9HioT4ysflhcnZz-15"><g><rect x="850" y="600" width="300" height="150" fill="none" stroke="none" pointer-events="all"/></g><g><g transform="translate(-0.5 -0.5)scale(5)"><switch><foreignObject style="overflow: visible; text-align: left;" pointer-events="none" width="100%" height="100%" requiredFeatures="http://www.w3.org/TR/SVG11/feature#Extensibility"><div xmlns="http://www.w3.org/1999/xhtml" style="display: flex; align-items: unsafe center; justify-content: unsafe center; width: 58px; height: 1px; padding-top: 135px; margin-left: 171px;"><div style="box-sizing: border-box; font-size: 0; text-align: center; color: #000000; "><div style="display: inline-block; font-size: 12px; font-family: &quot;Helvetica&quot;; color: #000000; line-height: 1.2; pointer-events: all; white-space: normal; word-wrap: normal; "><span style="color: rgb(0, 0, 0); text-wrap-mode: nowrap;"><font><mjx-container class="MathJax" jax="SVG" display="true"><svg xmlns="http://www.w3.org/2000/svg" width="2.875ex" height="2.564ex" role="img" focusable="false" viewBox="0 -883.9 1270.6 1133.4" xmlns:xlink="http://www.w3.org/1999/xlink" style="vertical-align: -0.564ex;"><defs><path id="MJX-156-TEX-N-7C" d="M139 -249H137Q125 -249 119 -235V251L120 737Q130 750 139 750Q152 750 159 735V-235Q151 -249 141 -249H139Z"/><path id="MJX-156-TEX-N-22C5" d="M78 250Q78 274 95 292T138 310Q162 310 180 294T199 251Q199 226 182 208T139 190T96 207T78 250Z"/><path id="MJX-156-TEX-N-32" d="M109 429Q82 429 66 447T50 491Q50 562 103 614T235 666Q326 666 387 610T449 465Q449 422 429 383T381 315T301 241Q265 210 201 149L142 93L218 92Q375 92 385 97Q392 99 409 186V189H449V186Q448 183 436 95T421 3V0H50V19V31Q50 38 56 46T86 81Q115 113 136 137Q145 147 170 174T204 211T233 244T261 278T284 308T305 340T320 369T333 401T340 431T343 464Q343 527 309 573T212 619Q179 619 154 602T119 569T109 550Q109 549 114 549Q132 549 151 535T170 489Q170 464 154 447T109 429Z"/></defs><g stroke="currentColor" fill="currentColor" stroke-width="0" transform="scale(1,-1)"><g data-mml-node="math"><g data-mml-node="mo" transform="translate(0 -0.5)"><use data-c="7C" xlink:href="#MJX-156-TEX-N-7C"/></g><g data-mml-node="mo" transform="translate(278,0)"><use data-c="22C5" xlink:href="#MJX-156-TEX-N-22C5"/></g><g data-mml-node="msup" transform="translate(556,0)"><g data-mml-node="mo" transform="translate(0 -0.5)"><use data-c="7C" xlink:href="#MJX-156-TEX-N-7C"/></g><g data-mml-node="mn" transform="translate(311,413) scale(0.707)"><use data-c="32" xlink:href="#MJX-156-TEX-N-32"/></g></g></g></g></svg></mjx-container></font></span></div></div></div></foreignObject><text x="200" y="139" fill="light-dark(#000000, #ffffff)" font-family="&quot;Helvetica&quot;" font-size="12px" text-anchor="middle">$$|\cdot|^...</text></switch></g></g></g><g data-cell-id="lBcME9HioT4ysflhcnZz-16"><g><path d="M 1150 937.5 L 1258.16 937.5" fill="none" stroke="#000000" stroke-width="5" stroke-miterlimit="10" pointer-events="stroke" style="stroke: rgb(0, 0, 0);"/><path d="M 1284.41 937.5 L 1249.41 955 L 1258.16 937.5 L 1249.41 920 Z" fill="#000000" stroke="#000000" stroke-width="5" stroke-miterlimit="10" pointer-events="all" style="fill: rgb(0, 0, 0); stroke: rgb(0, 0, 0);"/></g></g><g data-cell-id="lBcME9HioT4ysflhcnZz-17"><g><rect x="850" y="862.5" width="300" height="150" rx="22.5" ry="22.5" fill="#ffffff" stroke="#000000" stroke-width="5" pointer-events="all" style="fill: rgb(255, 255, 255); stroke: rgb(0, 0, 0);"/></g><g><g transform="translate(-0.5 -0.5)scale(5)"><switch><foreignObject style="overflow: visible; text-align: left;" pointer-events="none" width="100%" height="100%" requiredFeatures="http://www.w3.org/TR/SVG11/feature#Extensibility"><div xmlns="http://www.w3.org/1999/xhtml" style="display: flex; align-items: unsafe center; justify-content: unsafe center; width: 58px; height: 1px; padding-top: 188px; margin-left: 171px;"><div style="box-sizing: border-box; font-size: 0; text-align: center; color: #000000; "><div style="display: inline-block; font-size: 12px; font-family: &quot;Helvetica&quot;; color: #000000; line-height: 1.2; pointer-events: all; white-space: normal; word-wrap: normal; ">MLP</div></div></div></foreignObject><text x="200" y="191" fill="light-dark(#000000, #ffffff)" font-family="&quot;Helvetica&quot;" font-size="12px" text-anchor="middle">MLP</text></switch></g></g></g><g data-cell-id="lBcME9HioT4ysflhcnZz-18"><g><rect x="1200" y="600" width="300" height="150" fill="none" stroke="none" pointer-events="all"/></g><g><g transform="translate(-0.5 -0.5)scale(5)"><switch><foreignObject style="overflow: visible; text-align: left;" pointer-events="none" width="100%" height="100%" requiredFeatures="http://www.w3.org/TR/SVG11/feature#Extensibility"><div xmlns="http://www.w3.org/1999/xhtml" style="display: flex; align-items: unsafe center; justify-content: unsafe center; width: 58px; height: 1px; padding-top: 135px; margin-left: 241px;"><div style="box-sizing: border-box; font-size: 0; text-align: center; color: #000000; "><div style="display: inline-block; font-size: 12px; font-family: &quot;Helvetica&quot;; color: #000000; line-height: 1.2; pointer-events: all; white-space: normal; word-wrap: normal; "><span style="color: rgb(0, 0, 0); text-wrap-mode: nowrap;"><mjx-container class="MathJax" jax="SVG" display="true"><svg xmlns="http://www.w3.org/2000/svg" width="3.895ex" height="1.344ex" role="img" focusable="false" viewBox="0 -444 1721.7 594" xmlns:xlink="http://www.w3.org/1999/xlink" style="vertical-align: -0.339ex;"><defs><path id="MJX-157-TEX-B-1D431" d="M227 0Q212 3 121 3Q40 3 28 0H21V62H117L245 213L109 382H26V444H34Q49 441 143 441Q247 441 265 444H274V382H246L281 339Q315 297 316 297Q320 297 354 341L389 382H352V444H360Q375 441 466 441Q547 441 559 444H566V382H471L355 246L504 63L545 62H586V0H578Q563 3 469 3Q365 3 347 0H338V62H366Q366 63 326 112T285 163L198 63L217 62H235V0H227Z"/><path id="MJX-157-TEX-N-31" d="M213 578L200 573Q186 568 160 563T102 556H83V602H102Q149 604 189 617T245 641T273 663Q275 666 285 666Q294 666 302 660V361L303 61Q310 54 315 52T339 48T401 46H427V0H416Q395 3 257 3Q121 3 100 0H88V46H114Q136 46 152 46T177 47T193 50T201 52T207 57T213 61V578Z"/><path id="MJX-157-TEX-N-3A" d="M78 370Q78 394 95 412T138 430Q162 430 180 414T199 371Q199 346 182 328T139 310T96 327T78 370ZM78 60Q78 84 95 102T138 120Q162 120 180 104T199 61Q199 36 182 18T139 0T96 17T78 60Z"/><path id="MJX-157-TEX-I-1D43F" d="M228 637Q194 637 192 641Q191 643 191 649Q191 673 202 682Q204 683 217 683Q271 680 344 680Q485 680 506 683H518Q524 677 524 674T522 656Q517 641 513 637H475Q406 636 394 628Q387 624 380 600T313 336Q297 271 279 198T252 88L243 52Q243 48 252 48T311 46H328Q360 46 379 47T428 54T478 72T522 106T564 161Q580 191 594 228T611 270Q616 273 628 273H641Q647 264 647 262T627 203T583 83T557 9Q555 4 553 3T537 0T494 -1Q483 -1 418 -1T294 0H116Q32 0 32 10Q32 17 34 24Q39 43 44 45Q48 46 59 46H65Q92 46 125 49Q139 52 144 61Q147 65 216 339T285 628Q285 635 228 637Z"/></defs><g stroke="currentColor" fill="currentColor" stroke-width="0" transform="scale(1,-1)"><g data-mml-node="math"><g data-mml-node="msub"><g data-mml-node="TeXAtom" data-mjx-texclass="ORD"><g data-mml-node="TeXAtom" data-mjx-texclass="ORD"><g data-mml-node="mi"><use data-c="1D431" xlink:href="#MJX-157-TEX-B-1D431"/></g></g></g><g data-mml-node="TeXAtom" transform="translate(640,-150) scale(0.707)" data-mjx-texclass="ORD"><g data-mml-node="mn"><use data-c="31" xlink:href="#MJX-157-TEX-N-31"/></g><g data-mml-node="mo" transform="translate(500,0)"><use data-c="3A" xlink:href="#MJX-157-TEX-N-3A"/></g><g data-mml-node="mi" transform="translate(778,0)"><use data-c="1D43F" xlink:href="#MJX-157-TEX-I-1D43F"/></g></g></g></g></g></svg></mjx-container></span></div></div></div></foreignObject><text x="270" y="139" fill="light-dark(#000000, #ffffff)" font-family="&quot;Helvetica&quot;" font-size="12px" text-anchor="middle">$${\mathbf...</text></switch></g></g></g><g data-cell-id="lBcME9HioT4ysflhcnZz-19"><g><path d="M 1350 750 L 1351.86 843.17" fill="none" stroke="#000000" stroke-width="5" stroke-miterlimit="10" pointer-events="stroke" style="stroke: rgb(0, 0, 0);"/><path d="M 1352.39 869.41 L 1334.19 834.77 L 1351.86 843.17 L 1369.18 834.07 Z" fill="#000000" stroke="#000000" stroke-width="5" stroke-miterlimit="10" pointer-events="all" style="fill: rgb(0, 0, 0); stroke: rgb(0, 0, 0);"/></g></g></g></g></g></svg>